<?xml version="1.0" encoding="utf-8"?>
<!-- Generator: Adobe Illustrator 19.0.0, SVG Export Plug-In . SVG Version: 6.00 Build 0)  -->
<svg version="1.1" id="Layer_1" xmlns="http://www.w3.org/2000/svg" xmlns:xlink="http://www.w3.org/1999/xlink" x="0px" y="0px"
	 viewBox="0 0 512 512" style="enable-background:new 0 0 512 512;" xml:space="preserve">
<g id="XMLID_1_">
	<path id="XMLID_10_" d="M84.9,360.2c-29.1,0-52.7,23.6-52.7,52.7s23.6,52.7,52.7,52.7s52.7-23.6,52.7-52.7
		C136.8,383.8,113.3,360.2,84.9,360.2z M84.9,434.9c-12.6,0-22.8-10.2-22.8-22.8c0-12.6,10.2-22.8,22.8-22.8s22.8,10.2,22.8,22.8
		C107,425.5,96.7,434.9,84.9,434.9z M339,360.2c-29.1,0-52.7,23.6-52.7,52.7s23.6,52.7,52.7,52.7s52.7-23.6,52.7-52.7
		C391.7,383.8,368.1,360.2,339,360.2z M339,434.9c-12.6,0-22.8-10.2-22.8-22.8c0-12.6,10.2-22.8,22.8-22.8
		c12.6,0,22.8,10.2,22.8,22.8C361.8,425.5,351.6,434.9,339,434.9z M402.7,46.4l-9.4,59.8H0l33.8,240.7h357.1l31.5-223.4l7.1-47.2
		H512V46.4H402.7z M389.3,136.1l-3.9,29.9H38.5l-3.9-29.9H389.3z M59.8,317L43.3,195.8h338.2L364.9,317C364.9,317,59.8,317,59.8,317
		z"/>
</g>
</svg>
