<?xml version="1.0" encoding="utf-8"?>
<!-- Generator: Adobe Illustrator 24.1.1, SVG Export Plug-In . SVG Version: 6.00 Build 0)  -->
<svg version="1.1" id="Layer_1" xmlns="http://www.w3.org/2000/svg" xmlns:xlink="http://www.w3.org/1999/xlink" x="0px" y="0px"
	 viewBox="0 0 512 512" style="enable-background:new 0 0 512 512;" xml:space="preserve">
<g>
	<path d="M215.5,512c-31.4,0-56.9-25.5-56.9-56.9s25.5-56.9,56.9-56.9c31.4,0,56.9,25.5,56.9,56.9S246.9,512,215.5,512z
		 M215.5,426.7c-15.7,0-28.4,12.8-28.4,28.4s12.8,28.4,28.4,28.4c15.7,0,28.4-12.8,28.4-28.4S231.2,426.7,215.5,426.7z"/>
	<path d="M414.6,512c-31.4,0-56.9-25.5-56.9-56.9s25.5-56.9,56.9-56.9c31.4,0,56.9,25.5,56.9,56.9S446,512,414.6,512z M414.6,426.7
		c-15.7,0-28.4,12.8-28.4,28.4s12.8,28.4,28.4,28.4c15.7,0,28.4-12.8,28.4-28.4S430.3,426.7,414.6,426.7z"/>
	<path d="M486.8,70.2c-7.1-8.4-17.9-13.3-29.6-13.3H109l-2.8-17C102.5,17.6,81.8,0,59,0H30.6c-7.8,0-14.2,6.4-14.2,14.2
		s6.4,14.2,14.2,14.2H59c8.7,0,17.7,7.6,19.1,16.2l47.5,285.2c3.7,22.4,24.4,39.9,47.2,39.9h284.4c7.9,0,14.2-6.4,14.2-14.2
		c0-7.8-6.4-14.2-14.2-14.2H172.8c-8.7,0-17.7-7.6-19.1-16.2l-7-42.1l283.5-24.7c22-1.9,42.2-20.5,45.8-42.3l19.1-114.6
		C497,90,494,78.6,486.8,70.2L486.8,70.2z M467,96.8l-19.1,114.6c-1.5,9-11.1,17.9-20.2,18.7L142,254.9L113.7,85.3h343.5
		c3.3,0,6.1,1.1,7.9,3.2C466.8,90.6,467.5,93.5,467,96.8L467,96.8z"/>
</g>
</svg>
