<?xml version="1.0" encoding="utf-8"?>
<!-- Generator: Adobe Illustrator 24.1.1, SVG Export Plug-In . SVG Version: 6.00 Build 0)  -->
<svg version="1.1" id="Layer_1" xmlns="http://www.w3.org/2000/svg" xmlns:xlink="http://www.w3.org/1999/xlink" x="0px" y="0px"
	 viewBox="0 0 512 512" style="enable-background:new 0 0 512 512;" xml:space="preserve">
<style type="text/css">
	.st0{fill:#555555;}
</style>
<g>
	<path class="st0" d="M34.9,441.1c19.2,0,34.8,15.9,34.8,35.5c0,19.6-15.6,35.5-34.8,35.5C15.6,512,0,496.1,0,476.5
		C0,457,15.6,441.1,34.9,441.1z M429.6,441.1c19.2,0,34.8,15.9,34.8,35.5c0,19.6-15.6,35.5-34.8,35.5c-19.2,0-34.8-15.9-34.8-35.5
		C394.8,457,410.4,441.1,429.6,441.1z M511.3,12.7c2.7,9.4-2.5,19.3-11.8,22c-18.3,5.5-30.2,12.4-36,20c-6.1,8-9.5,17.8-10.1,29
		l0,244.7c-1,28.5-7.6,51-20.4,67.1c-13.4,16.8-33.8,26.2-62.1,29H90.9c-25,0-45.7-6.5-61.3-20c-15.7-13.5-25.4-33-29.3-57.9
		L0,343.8l0-152c1.1-26.4,9.4-48.1,25-64.4c15.8-16.5,37.9-25,65.8-25.7h243.7c9.6,0,17.4,7.9,17.4,17.7c0,9.8-7.8,17.7-17.4,17.7
		H91.4c-18.9,0.5-32.4,5.7-41.4,15c-9.2,9.6-14.3,23.1-15.1,40.4v149.7c2.8,16.2,8.6,27.7,17.2,35.1c8.8,7.6,21.6,11.6,38.8,11.6
		l278.4,0.1c17.9-1.8,29.8-7.3,36.7-15.9c7.4-9.3,11.9-24.6,12.6-45.4l0-245C419.6,63.7,425.4,47,436,33C447,18.6,465,8.1,489.6,0.7
		C498.9-2,508.5,3.3,511.3,12.7z M334.5,295.3c9.6,0,17.4,7.9,17.4,17.7c0,9.8-7.8,17.7-17.4,17.7H121.8c-9.6,0-17.4-7.9-17.4-17.7
		c0-9.8,7.8-17.7,17.4-17.7H334.5z M334.5,200.7c9.6,0,17.4,7.9,17.4,17.7c0,9.8-7.8,17.7-17.4,17.7H121.8
		c-9.6,0-17.4-7.9-17.4-17.7c0-9.8,7.8-17.7,17.4-17.7H334.5z"/>
</g>
</svg>
