<?xml version="1.0" encoding="utf-8"?>
<!-- Svg Vector Icons : http://www.onlinewebfonts.com/icon -->
<!DOCTYPE svg PUBLIC "-//W3C//DTD SVG 1.1//EN" "http://www.w3.org/Graphics/SVG/1.1/DTD/svg11.dtd">
<svg version="1.1" xmlns="http://www.w3.org/2000/svg" xmlns:xlink="http://www.w3.org/1999/xlink" x="0px" y="0px" viewBox="0 0 1000 1000" enable-background="new 0 0 1000 1000" xml:space="preserve">
<metadata> Svg Vector Icons : http://www.onlinewebfonts.com/icon </metadata>
<g><path d="M750.3,990c-51,0-92.6-41.5-92.6-92.6c0-51,41.5-92.6,92.6-92.6c51.1,0,92.6,41.5,92.6,92.6C842.9,948.5,801.4,990,750.3,990z M750.3,853.7c-24.1,0-43.7,19.6-43.7,43.7c0,24.1,19.6,43.7,43.7,43.7c24.1,0,43.7-19.6,43.7-43.7C794,873.4,774.5,853.7,750.3,853.7z M296.1,990c-51.1,0-92.6-41.5-92.6-92.6c0-51,41.5-92.6,92.6-92.6c51.1,0,92.6,41.5,92.6,92.6C388.7,948.5,347.1,990,296.1,990z M296.1,853.7c-24.1,0-43.7,19.6-43.7,43.7c0,24.1,19.6,43.7,43.7,43.7c24.1,0,43.7-19.6,43.7-43.7C339.8,873.4,320.2,853.7,296.1,853.7z M861.9,693.1H184.5l-47.9-287.4l-74.9-379L113.3,10l48.3,225.4h776.7L861.9,693.1z M225.9,644.2h594.5l60-359.9H165.3l19.6,113.3L225.9,644.2z"/></g>
</svg>