<?xml version="1.0" encoding="utf-8"?>
<!-- Svg Vector Icons : http://www.onlinewebfonts.com/icon -->
<!DOCTYPE svg PUBLIC "-//W3C//DTD SVG 1.1//EN" "http://www.w3.org/Graphics/SVG/1.1/DTD/svg11.dtd">
<svg version="1.1" xmlns="http://www.w3.org/2000/svg" xmlns:xlink="http://www.w3.org/1999/xlink" x="0px" y="0px" viewBox="0 0 1000 1000" enable-background="new 0 0 1000 1000" xml:space="preserve">
<metadata> Svg Vector Icons : http://www.onlinewebfonts.com/icon </metadata>
<g><path d="M255,867.5c-33.8,0-61.3,27.4-61.3,61.3S221.2,990,255,990s61.3-27.4,61.3-61.3S288.8,867.5,255,867.5z M255,949.2c-11.3,0-20.4-9.2-20.4-20.4s9.2-20.4,20.4-20.4s20.4,9.2,20.4,20.4S266.3,949.2,255,949.2z"/><path d="M827.9,867.5c-33.8,0-61.3,27.4-61.3,61.3s27.4,61.3,61.3,61.3c33.8,0,61.3-27.4,61.3-61.3S861.8,867.5,827.9,867.5z M827.9,949.2c-11.3,0-20.4-9.2-20.4-20.4s9.2-20.4,20.4-20.4c11.3,0,20.4,9.2,20.4,20.4S839.2,949.2,827.9,949.2z"/><path d="M990,173.3L161,90.8C156.9,73,149.9,53.3,130.8,38C107,18.9,68.7,10,10,10v40.8c47.5,0,79.5,6.4,95.2,19c11.4,9.1,14.4,21.5,18.3,40.8l-0.1,0l107.3,596.3c6.2,36.8,18.4,64.3,33.9,84.2c18.5,23.6,42.7,35.6,72,35.6h612.5v-40.8H336.7c-12.1,0-48.8,0.3-65.7-86.1l-13.9-77L949.2,500L990,173.3z M914.9,465.2L249.9,582.5l-81-449.9l775.5,78.1L914.9,465.2z"/></g>
</svg>