<?xml version="1.0" encoding="utf-8"?>
<!-- Svg Vector Icons : http://www.onlinewebfonts.com/icon -->
<!DOCTYPE svg PUBLIC "-//W3C//DTD SVG 1.1//EN" "http://www.w3.org/Graphics/SVG/1.1/DTD/svg11.dtd">
<svg version="1.1" xmlns="http://www.w3.org/2000/svg" xmlns:xlink="http://www.w3.org/1999/xlink" x="0px" y="0px" viewBox="0 0 1000 1000" enable-background="new 0 0 1000 1000" xml:space="preserve">
<metadata> Svg Vector Icons : http://www.onlinewebfonts.com/icon </metadata>
<g><g transform="translate(0.000000,512.000000) scale(0.100000,-0.100000)"><path d="M6716.4,5016.5c-21.1-3.8-86.3-17.3-143.8-28.8c-59.4-11.5-1118.1-462.2-2395.3-1016.4l-2289.9-995.3h-443c-496.7,0-611.8-17.3-803.6-118.9c-235.9-126.6-418.1-345.2-498.6-600.3L100,2122.5V-917.2v-3039.7l44.1-124.7c115.1-316.4,339.5-540.8,657.8-655.9l122.7-44.1h3854.8c3687.9,0,3860.5,1.9,3969.9,34.5c352.9,109.3,640.6,404.7,717.3,742.2c11.5,51.8,21.1,410.4,21.1,895.6v809.3l88.2,44.1c117,57.5,245.5,203.3,289.6,327.9c30.7,92.1,34.5,180.3,34.5,1039.5V51.3l-49.9,105.5c-59.5,122.7-180.3,249.3-287.7,297.3l-74.8,34.5v807.4c0,891.8-3.8,932.1-118.9,1148.8c-124.7,232.1-441.1,468-673.1,502.5l-82.5,13.4l-360.6,721.1c-199.4,397-398.9,776.7-444.9,841.9c-157.3,220.5-400.8,389.3-654,454.5C7031,5010.7,6781.6,5031.8,6716.4,5016.5z M7023.3,4596.5c157.3-42.2,281.9-115.1,391.3-230.1c82.5-86.3,187.9-253.2,170.7-268.5c-3.8-1.9-550.4-257-1217.8-563.8l-1212.1-558.1H4039.2c-642.5,0-1110.4,7.7-1098.9,17.3c28.8,26.8,3647.7,1593.7,3724.4,1611C6775.9,4631,6900.5,4627.2,7023.3,4596.5z M7959.2,3369.1c101.6-205.2,186-377.8,186-383.6c0-5.8-450.7-9.6-1001.1-7.7c-755.6,0-995.3,5.8-970.4,23c28.8,19.2,1564.9,736.4,1587.9,740.3C7767.4,3743.1,7855.6,3574.3,7959.2,3369.1z M8689.9,2540.6c111.2-40.3,262.7-170.7,326-281.9c78.6-136.2,88.2-239.7,88.2-1008.8V521.1h-784.4c-851.5,0-955.1-9.6-1196.7-105.5c-581.1-234-958.9-866.9-878.3-1474.8c49.9-364.4,161.1-594.5,414.2-845.7c195.6-197.5,381.7-306.9,636.7-377.8c140-38.4,201.4-42.2,980-49.9l830.4-7.7l-5.7-778.6l-5.8-780.5l-49.9-107.4c-69.1-145.8-172.6-255.1-301.1-318.4l-109.3-53.7h-3826c-3732.1,0-3827.9,0-3921.9,36.4c-124.7,49.9-281.9,197.5-337.5,324.1l-46,99.8V-898v3020.5l47.9,95.9c63.3,130.4,207.1,266.6,329.9,314.5c101.6,38.4,136.2,38.4,3908.5,40.3C8371.5,2573.2,8601.6,2571.3,8689.9,2540.6z M9441.6,53.2l65.2-65.2v-874.5c0-962.7,0-958.9-117-1018.3c-49.9-26.9-172.6-30.7-1001.1-25c-920.5,5.8-945.5,7.7-1056.7,49.9c-410.4,153.4-667.4,491-696.2,914.8C6605.2-503,6900.5-71.5,7349.3,72.4c132.3,44.1,149.6,44.1,1079.7,46h947.4L9441.6,53.2z"/><path d="M7439.5-336.1c-115.1-40.3-276.2-195.6-331.8-316.4c-61.4-138.1-63.3-368.2-3.8-496.7c57.5-126.6,164.9-237.8,289.6-299.2c143.8-70.9,366.3-74.8,506.3-11.5c134.2,61.4,251.2,180.3,312.6,314.5c44.1,101.6,51.8,136.2,44.1,264.6c-15.3,345.2-262.7,579.2-606,575.3C7579.5-305.4,7485.5-318.9,7439.5-336.1z M7738.6-713.9c113.2-59.4,155.4-161.1,111.2-268.5c-32.6-80.5-97.8-126.6-178.3-126.6c-132.3,0-216.7,82.4-216.7,214.8c0,80.6,44.1,145.8,122.7,180.3C7654.3-681.3,7675.3-681.3,7738.6-713.9z"/></g></g>
</svg>