<?xml version="1.0" encoding="utf-8"?>
<!-- Generator: Adobe Illustrator 19.0.0, SVG Export Plug-In . SVG Version: 6.00 Build 0)  -->
<svg version="1.1" id="Layer_1" xmlns="http://www.w3.org/2000/svg" xmlns:xlink="http://www.w3.org/1999/xlink" x="0px" y="0px"
	 viewBox="0 0 512 512" style="enable-background:new 0 0 512 512;" xml:space="preserve">
<g id="XMLID_1_">
	<path id="XMLID_8_" d="M47.6,45.3C21.5,45.3,0.8,66,0.8,91.3H0v329.3c0,25.3,20.7,46.1,46.8,46.1h406.1v-49.1H512V45.3H47.6z
		 M46.8,437.5c-9.2,0-16.9-6.9-16.9-16.1V132.8h2.3c4.6,1.5,8.4,2.3,13.8,2.3h0.8H423v91.3h-86c-26.1,0-46.8,20-46.8,45.3v29.9
		c0,24.6,21.5,45.3,46.8,45.3h86v90.6C423,437.5,46.8,437.5,46.8,437.5z M337,317c-9.2,0-16.9-6.9-16.9-15.4v-29.9
		c0-8.4,7.7-15.4,16.9-15.4h145.1v59.9H337V317z M482.1,387.6h-29.2V347h29.2V387.6z M453.7,226.4V105.2H47.6
		c-8.4,0-16.9-3.8-16.9-13S38.4,76,47.6,76h435.2v151.2h-29.2V226.4z"/>
</g>
</svg>
